HIERARCHY
ROOT hip
{
  OFFSET 5.70873 43.8894 -1.52928
  CHANNELS 6 Xposition Yposition Zposition Zrotation Xrotation Yrotation
  JOINT abdomen
  {
    OFFSET 0 5.99393 0.287273
    CHANNELS 6 Xposition Yposition Zposition Zrotation Xrotation Yrotation
    JOINT chest
    {
      OFFSET 0 6.65865 -0.856112
      CHANNELS 6 Xposition Yposition Zposition Zrotation Xrotation Yrotation
      JOINT neck
      {
        OFFSET 0 8.65624 -1.42685
        CHANNELS 6 Xposition Yposition Zposition Zrotation Xrotation Yrotation
        JOINT head
        {
          OFFSET 0 3.80999 -0.190247
          CHANNELS 6 Xposition Yposition Zposition Zrotation Xrotation Yrotation
          End Site
          {
            OFFSET 0 0 0
          }
        }
      }
      JOINT rCollar
      {
        OFFSET -1.4963 7.5744 -1.52136
        CHANNELS 6 Xposition Yposition Zposition Zrotation Xrotation Yrotation
        JOINT rShldr
        {
          OFFSET -5.47506 -0.905672 0.485692
          CHANNELS 6 Xposition Yposition Zposition Zrotation Xrotation Yrotation
          JOINT rForeArm
          {
            OFFSET -11.3069 -0.201091 0.618544
            CHANNELS 6 Xposition Yposition Zposition Zrotation Xrotation Yrotation
            JOINT rHand
            {
              OFFSET -9.61414 -0.254739 3.48553
              CHANNELS 6 Xposition Yposition Zposition Zrotation Xrotation Yrotation
              JOINT rThumb1
              {
                OFFSET 0.176263 -0.07068 1.26622
                CHANNELS 6 Xposition Yposition Zposition Zrotation Xrotation Yrotation
                JOINT rThumb2
                {
                  OFFSET -1.04683 -0.546484 1.82182
                  CHANNELS 6 Xposition Yposition Zposition Zrotation Xrotation Yrotation
                  JOINT rThumb3
                  {
                    OFFSET -0.993472 -0.621916 0.655506
                    CHANNELS 6 Xposition Yposition Zposition Zrotation Xrotation Yrotation
                    End Site
                    {
                      OFFSET -0.996134 -0.66263 0.644615
                    }
                  }
                }
              }
              JOINT rIndex1
              {
                OFFSET -2.64253 0.566363 2.4162
                CHANNELS 6 Xposition Yposition Zposition Zrotation Xrotation Yrotation
                JOINT rIndex2
                {
                  OFFSET -1.39394 -0.635138 0.899356
                  CHANNELS 6 Xposition Yposition Zposition Zrotation Xrotation Yrotation
                  JOINT rIndex3
                  {
                    OFFSET -0.622395 -0.856016 0.402182
                    CHANNELS 6 Xposition Yposition Zposition Zrotation Xrotation Yrotation
                    End Site
                    {
                      OFFSET -0.472476 -0.801802 0.34216
                    }
                  }
                }
              }
              JOINT rMid1
              {
                OFFSET -3.20814 0.514427 1.52547
                CHANNELS 6 Xposition Yposition Zposition Zrotation Xrotation Yrotation
                JOINT rMid2
                {
                  OFFSET -1.56545 -0.497974 0.68919
                  CHANNELS 6 Xposition Yposition Zposition Zrotation Xrotation Yrotation
                  JOINT rMid3
                  {
                    OFFSET -0.679943 -1.17582 0.444246
                    CHANNELS 6 Xposition Yposition Zposition Zrotation Xrotation Yrotation
                    End Site
                    {
                      OFFSET -0.343874 -0.941341 0.267611
                    }
                  }
                }
              }
              JOINT rRing1
              {
                OFFSET -3.47877 0.200518 0.597719
                CHANNELS 6 Xposition Yposition Zposition Zrotation Xrotation Yrotation
                JOINT rRing2
                {
                  OFFSET -1.28208 -0.53155 0.44672
                  CHANNELS 6 Xposition Yposition Zposition Zrotation Xrotation Yrotation
                  JOINT rRing3
                  {
                    OFFSET -0.710288 -0.970167 0.4032
                    CHANNELS 6 Xposition Yposition Zposition Zrotation Xrotation Yrotation
                    End Site
                    {
                      OFFSET -0.403228 -0.950952 0.378354
                    }
                  }
                }
              }
              JOINT rPinky1
              {
                OFFSET -3.42483 -0.278904 -0.240415
                CHANNELS 6 Xposition Yposition Zposition Zrotation Xrotation Yrotation
                JOINT rPinky2
                {
                  OFFSET -1.05787 -0.635999 0.156459
                  CHANNELS 6 Xposition Yposition Zposition Zrotation Xrotation Yrotation
                  JOINT rPinky3
                  {
                    OFFSET -0.42815 -0.754232 0.287187
                    CHANNELS 6 Xposition Yposition Zposition Zrotation Xrotation Yrotation
                    End Site
                    {
                      OFFSET -0.235717 -0.725605 0.279416
                    }
                  }
                }
              }
            }
          }
        }
      }
      JOINT lCollar
      {
        OFFSET 1.4963 7.5744 -1.52136
        CHANNELS 6 Xposition Yposition Zposition Zrotation Xrotation Yrotation
        JOINT lShldr
        {
          OFFSET 5.47506 -0.905672 0.485692
          CHANNELS 6 Xposition Yposition Zposition Zrotation Xrotation Yrotation
          JOINT lForeArm
          {
            OFFSET 11.3069 -0.201091 0.618544
            CHANNELS 6 Xposition Yposition Zposition Zrotation Xrotation Yrotation
            JOINT lHand
            {
              OFFSET 9.61414 -0.254739 3.48553
              CHANNELS 6 Xposition Yposition Zposition Zrotation Xrotation Yrotation
              JOINT lThumb1
              {
                OFFSET -0.176263 -0.07068 1.26622
                CHANNELS 6 Xposition Yposition Zposition Zrotation Xrotation Yrotation
                JOINT lThumb2
                {
                  OFFSET 1.04683 -0.546484 1.82182
                  CHANNELS 6 Xposition Yposition Zposition Zrotation Xrotation Yrotation
                  JOINT lThumb3
                  {
                    OFFSET 0.993472 -0.621916 0.655506
                    CHANNELS 6 Xposition Yposition Zposition Zrotation Xrotation Yrotation
                    End Site
                    {
                      OFFSET 0.996134 -0.66263 0.644615
                    }
                  }
                }
              }
              JOINT lIndex1
              {
                OFFSET 2.64253 0.566363 2.4162
                CHANNELS 6 Xposition Yposition Zposition Zrotation Xrotation Yrotation
                JOINT lIndex2
                {
                  OFFSET 1.39394 -0.635138 0.899356
                  CHANNELS 6 Xposition Yposition Zposition Zrotation Xrotation Yrotation
                  JOINT lIndex3
                  {
                    OFFSET 0.622395 -0.856016 0.402182
                    CHANNELS 6 Xposition Yposition Zposition Zrotation Xrotation Yrotation
                    End Site
                    {
                      OFFSET 0.472476 -0.801802 0.34216
                    }
                  }
                }
              }
              JOINT lMid1
              {
                OFFSET 3.20814 0.514427 1.52547
                CHANNELS 6 Xposition Yposition Zposition Zrotation Xrotation Yrotation
                JOINT lMid2
                {
                  OFFSET 1.56545 -0.497974 0.68919
                  CHANNELS 6 Xposition Yposition Zposition Zrotation Xrotation Yrotation
                  JOINT lMid3
                  {
                    OFFSET 0.679943 -1.17582 0.444246
                    CHANNELS 6 Xposition Yposition Zposition Zrotation Xrotation Yrotation
                    End Site
                    {
                      OFFSET 0.343874 -0.941341 0.267611
                    }
                  }
                }
              }
              JOINT lRing1
              {
                OFFSET 3.47877 0.200518 0.597719
                CHANNELS 6 Xposition Yposition Zposition Zrotation Xrotation Yrotation
                JOINT lRing2
                {
                  OFFSET 1.28208 -0.53155 0.44672
                  CHANNELS 6 Xposition Yposition Zposition Zrotation Xrotation Yrotation
                  JOINT lRing3
                  {
                    OFFSET 0.710288 -0.970167 0.4032
                    CHANNELS 6 Xposition Yposition Zposition Zrotation Xrotation Yrotation
                    End Site
                    {
                      OFFSET 0.403228 -0.950952 0.378354
                    }
                  }
                }
              }
              JOINT lPinky1
              {
                OFFSET 3.42483 -0.278904 -0.240415
                CHANNELS 6 Xposition Yposition Zposition Zrotation Xrotation Yrotation
                JOINT lPinky2
                {
                  OFFSET 1.05787 -0.635999 0.156459
                  CHANNELS 6 Xposition Yposition Zposition Zrotation Xrotation Yrotation
                  JOINT lPinky3
                  {
                    OFFSET 0.42815 -0.754232 0.287187
                    CHANNELS 6 Xposition Yposition Zposition Zrotation Xrotation Yrotation
                    End Site
                    {
                      OFFSET 0.235717 -0.725605 0.279416
                    }
                  }
                }
              }
            }
          }
        }
      }
    }
  }
  JOINT rThigh
  {
    OFFSET -4.17848 -1.02486 0.046356
    CHANNELS 6 Xposition Yposition Zposition Zrotation Xrotation Yrotation
    JOINT rShin
    {
      OFFSET 1.27155 -17.465 -0.237699
      CHANNELS 6 Xposition Yposition Zposition Zrotation Xrotation Yrotation
      JOINT rFoot
      {
        OFFSET 0.529163 -17.3815 -1.19582
        CHANNELS 6 Xposition Yposition Zposition Zrotation Xrotation Yrotation
        JOINT rToe
        {
          OFFSET -0.711591 -4.4863 4.0596
          CHANNELS 6 Xposition Yposition Zposition Zrotation Xrotation Yrotation
          End Site
          {
            OFFSET -0.869915 -1.10655 1.99006
          }
        }
      }
    }
  }
  JOINT lThigh
  {
    OFFSET 4.17848 -1.02486 0.046356
    CHANNELS 6 Xposition Yposition Zposition Zrotation Xrotation Yrotation
    JOINT lShin
    {
      OFFSET -1.27155 -17.465 -0.237699
      CHANNELS 6 Xposition Yposition Zposition Zrotation Xrotation Yrotation
      JOINT lFoot
      {
        OFFSET -0.529163 -17.3815 -1.19582
        CHANNELS 6 Xposition Yposition Zposition Zrotation Xrotation Yrotation
        JOINT lToe
        {
          OFFSET 0.711591 -4.4863 4.0596
          CHANNELS 6 Xposition Yposition Zposition Zrotation Xrotation Yrotation
          End Site
          {
            OFFSET 0.869915 -1.10655 1.99006
          }
        }
      }
    }
  }
}
MOTION
Frames:	4
Frame Time:	0.0333333
13.6795 19.1691 -12.9799 16.4383 6.03158 -62.3938 -8.88178e-016 5.99393 0.287273 -3.55914 -1.52483 -0.274334 1.77636e-015 6.65865 -0.856112 -7.1293 -3.02965 -0.64323 0 8.65624 -1.42685 1.18251 -17.249 33.3613 0 3.80999 -0.190247 -1.54897 8.47499 17.0952 -1.4963 7.5744 -1.52136 -32.0146 -0.468674 14.3372 -5.47506 -0.905672 0.485692 52.5348 -16.633 55.5203 -11.3069 -0.201091 0.618544 18.6744 -37.1723 62.4801 -9.61414 -0.254739 3.48553 -1.22934 -48.0708 -16.1529 0.176263 -0.07068 1.26622 -27.0718 34.1214 37.4743 -1.04683 -0.546484 1.82182 3.31213 -2.96553 9.24494 -0.993472 -0.621916 0.655506 -4.3271 5.93877 -14.9479 -2.64253 0.566363 2.4162 13.4015 5.92012 -12.0725 -1.39394 -0.635138 0.899356 44.7396 8.15939 -10.1718 -0.622395 -0.856016 0.402182 45.8626 8.24912 -10.4911 -3.20814 0.514427 1.52547 7.10267 0.886227 -2.24135 -1.56545 -0.497974 0.68919 52.741 10.533 -13.0891 -0.679943 -1.17582 0.444246 15.4525 4.36319 -2.78807 -3.47877 0.200518 0.597719 14.3236 -1.13295 -5.51463 -1.28208 -0.53155 0.44672 21.365 6.41233 -5.10256 -0.710288 -0.970167 0.4032 22.9812 6.80615 -5.57296 -3.42483 -0.278904 -0.240415 -6.90718 -7.98177 -6.36678 -1.05787 -0.635999 0.156459 25.752 8.21732 -6.21983 -0.42815 -0.754232 0.287187 15.2761 5.26321 -3.27309 1.4963 7.5744 -1.52136 4.02996 -2.98721 -15.9693 5.47506 -0.905672 0.485692 -69.577 12.9112 -46.6816 11.3069 -0.201091 0.618544 -1.54964 -1.77016 -35.8858 9.61414 -0.254739 3.48553 179.448 -22.7561 -162.855 -0.176263 -0.07068 1.26622 -10.636 11.9346 -8.20461 1.04683 -0.546484 1.82182 -3.52461 -0.841783 -6.22161 0.993472 -0.621916 0.655506 -3.38476 -0.816068 -5.97685 2.64253 0.566363 2.4162 6.70675 0.608762 -6.80048 1.39394 -0.635138 0.899356 3.57689 -1.24694 -1.39769 0.622395 -0.856016 0.402182 -1.99083 0.65128 0.805534 3.20814 0.514427 1.52547 2.80356 2.25297 -0.485648 1.56545 -0.497974 0.68919 -4.32197 1.56786 1.78991 0.679943 -1.17582 0.444246 7.81753 -3.21208 -2.96513 3.47877 0.200518 0.597719 4.43569 -0.47743 2.84045 1.28208 -0.53155 0.44672 -4.90886 1.94624 2.3078 0.710288 -0.970167 0.4032 6.89956 -3.11425 -3.00221 3.42483 -0.278904 -0.240415 0.374707 -1.48973 11.794 1.05787 -0.635999 0.156459 5.05419 -2.41037 -2.1729 0.42815 -0.754232 0.287187 -3.96988 1.72612 1.82174 -4.17848 -1.02486 0.046356 -98.391 -40.6695 -72.4363 1.27155 -17.465 -0.237699 169.131 30.1287 -152.664 0.529163 -17.3815 -1.19582 -11.7682 -39.4159 -5.79945 -0.711591 -4.4863 4.0596 9.6096 -18.8812 2.69961 4.17848 -1.02486 0.046356 91.0091 -43.9283 92.7551 -1.27155 -17.465 -0.237699 172.788 34.6581 -175.807 -0.529163 -17.3815 -1.19582 -0.529831 -53.5208 -6.21849 0.711591 -4.4863 4.0596 2.78932 -11.2644 1.03755 
12.7432 19.3389 -12.6218 16.9608 6.41871 -62.1517 0 5.99393 0.287273 -3.7725 -2.34082 -0.112072 -1.77636e-015 6.65865 -0.856112 -7.55903 -4.66915 -0.378505 -1.77636e-015 8.65624 -1.42685 1.17917 -15.8446 33.9114 0 3.80999 -0.190247 -2.14449 9.31331 16.9915 -1.4963 7.5744 -1.52136 -32.0801 -0.467784 14.3205 -5.47506 -0.905672 0.485692 55.3152 -13.3655 51.3865 -11.3069 -0.201091 0.618544 24.4467 -34.4294 69.9391 -9.61414 -0.254739 3.48553 -3.80243 -44.0569 -15.7481 0.176263 -0.07068 1.26622 -27.0718 34.1215 37.4743 -1.04683 -0.546484 1.82182 3.31222 -2.96564 9.24488 -0.993472 -0.621916 0.655506 -4.32709 5.93878 -14.9479 -2.64253 0.566363 2.4162 13.4015 5.9202 -12.0725 -1.39394 -0.635138 0.899356 44.7396 8.15939 -10.1718 -0.622395 -0.856016 0.402182 45.8626 8.24913 -10.4911 -3.20814 0.514427 1.52547 7.10267 0.886327 -2.24136 -1.56545 -0.497974 0.68919 52.741 10.533 -13.0891 -0.679943 -1.17582 0.444246 15.4525 4.36324 -2.78805 -3.47877 0.200518 0.597719 14.3236 -1.13295 -5.51463 -1.28208 -0.53155 0.44672 21.365 6.41238 -5.10252 -0.710288 -0.970167 0.4032 22.9813 6.80614 -5.57297 -3.42483 -0.278904 -0.240415 -6.90717 -7.98178 -6.36678 -1.05787 -0.635999 0.156459 25.752 8.21718 -6.21985 -0.42815 -0.754232 0.287187 15.2761 5.26322 -3.27308 1.4963 7.5744 -1.52136 4.2919 -3.28005 -15.5955 5.47506 -0.905672 0.485692 -71.5465 14.5987 -43.078 11.3069 -0.201091 0.618544 -3.08739 -1.02438 -37.5836 9.61414 -0.254739 3.48553 -177.976 -23.2124 -162.391 -0.176263 -0.07068 1.26622 -10.636 11.9346 -8.20461 1.04683 -0.546484 1.82182 -3.5246 -0.841761 -6.2216 0.993472 -0.621916 0.655506 -3.38476 -0.816077 -5.97684 2.64253 0.566363 2.4162 6.70674 0.60876 -6.80047 1.39394 -0.635138 0.899356 3.57687 -1.24694 -1.39769 0.622395 -0.856016 0.402182 -1.99084 0.651293 0.805542 3.20814 0.514427 1.52547 2.80354 2.25293 -0.485637 1.56545 -0.497974 0.68919 -4.32197 1.56791 1.78991 0.679943 -1.17582 0.444246 7.81434 -3.21068 -2.96399 3.47877 0.200518 0.597719 4.43568 -0.477409 2.84046 1.28208 -0.53155 0.44672 -4.90961 1.94652 2.30816 0.710288 -0.970167 0.4032 6.89956 -3.11424 -3.00221 3.42483 -0.278904 -0.240415 0.374686 -1.48976 11.794 1.05787 -0.635999 0.156459 5.05419 -2.41037 -2.17289 0.42815 -0.754232 0.287187 -3.97079 1.72643 1.82215 -4.17848 -1.02486 0.046356 -95.2541 -41.8548 -69.3805 1.27155 -17.465 -0.237699 168.723 31.0962 -152.629 0.529163 -17.3815 -1.19582 -11.7427 -37.9797 -6.84253 -0.711591 -4.4863 4.0596 13.2789 -20.837 3.40193 4.17848 -1.02486 0.046356 88.319 -44.6065 88.3556 -1.27155 -17.465 -0.237699 172.757 35.4774 -175.961 -0.529163 -17.3815 -1.19582 -2.3502 -53.1576 -6.99294 0.711591 -4.4863 4.0596 2.85031 -11.69 1.08091 
11.7145 19.5295 -12.1712 16.9812 6.54335 -61.7567 -8.88178e-016 5.99393 0.287273 -3.97496 -2.93545 0.0703075 8.88178e-016 6.65865 -0.856112 -7.96205 -5.86874 -0.0637357 0 8.65624 -1.42685 1.18125 -14.6565 34.5469 -4.44089e-016 3.80999 -0.190247 -2.81664 10.4718 17.2071 -1.4963 7.5744 -1.52136 -32.1582 -0.466783 14.301 -5.47506 -0.905672 0.485692 58.2916 -10.2274 46.7733 -11.3069 -0.201091 0.618544 30.0891 -30.3799 76.8054 -9.61414 -0.254739 3.48553 -6.28367 -39.6116 -14.5165 0.176263 -0.07068 1.26622 -27.0717 34.1213 37.4742 -1.04683 -0.546484 1.82182 3.31223 -2.96561 9.24487 -0.993472 -0.621916 0.655506 -4.32711 5.9388 -14.9479 -2.64253 0.566363 2.4162 13.4016 5.92004 -12.0725 -1.39394 -0.635138 0.899356 44.7396 8.15942 -10.1718 -0.622395 -0.856016 0.402182 45.8625 8.24919 -10.4911 -3.20814 0.514427 1.52547 7.10272 0.886136 -2.24135 -1.56545 -0.497974 0.68919 52.741 10.5331 -13.0891 -0.679943 -1.17582 0.444246 15.4525 4.36312 -2.78809 -3.47877 0.200518 0.597719 14.3236 -1.13298 -5.51464 -1.28208 -0.53155 0.44672 21.365 6.41245 -5.1025 -0.710288 -0.970167 0.4032 22.9812 6.80615 -5.57297 -3.42483 -0.278904 -0.240415 -6.90716 -7.98179 -6.36679 -1.05787 -0.635999 0.156459 25.752 8.2172 -6.21984 -0.42815 -0.754232 0.287187 15.2761 5.2632 -3.27308 1.4963 7.5744 -1.52136 4.4691 -3.4794 -15.2549 5.47506 -0.905672 0.485692 -73.4407 16.0983 -39.2608 11.3069 -0.201091 0.618544 -4.62693 0.00266254 -39.458 9.61414 -0.254739 3.48553 -175.408 -23.6065 -161.847 -0.176263 -0.07068 1.26622 -10.636 11.9347 -8.2046 1.04683 -0.546484 1.82182 -3.52461 -0.84177 -6.22161 0.993472 -0.621916 0.655506 -3.38477 -0.816111 -5.97683 2.64253 0.566363 2.4162 6.70674 0.608726 -6.80047 1.39394 -0.635138 0.899356 3.57689 -1.24694 -1.39769 0.622395 -0.856016 0.402182 -1.99084 0.651283 0.80554 3.20814 0.514427 1.52547 2.80353 2.25291 -0.485639 1.56545 -0.497974 0.68919 -4.32196 1.56787 1.7899 0.679943 -1.17582 0.444246 7.81116 -3.2093 -2.96286 3.47877 0.200518 0.597719 4.43567 -0.47743 2.84045 1.28208 -0.53155 0.44672 -4.91034 1.94676 2.30852 0.710288 -0.970167 0.4032 6.89956 -3.11424 -3.0022 3.42483 -0.278904 -0.240415 0.374684 -1.48981 11.794 1.05787 -0.635999 0.156459 5.05419 -2.41036 -2.1729 0.42815 -0.754232 0.287187 -3.97166 1.72674 1.82255 -4.17848 -1.02486 0.046356 -90.8346 -42.6582 -64.1448 1.27155 -17.465 -0.237699 168.192 32.3332 -152.438 0.529163 -17.3815 -1.19582 -10.195 -36.9607 -6.82131 -0.711591 -4.4863 4.0596 16.5072 -22.7884 4.0994 4.17848 -1.02486 0.046356 84.6841 -45.1653 83.5231 -1.27155 -17.465 -0.237699 172.688 36.4667 -175.837 -0.529163 -17.3815 -1.19582 -2.30604 -52.2669 -6.00565 0.711591 -4.4863 4.0596 2.26375 -11.9088 0.966729 
10.6363 19.7465 -11.6759 16.2778 6.49563 -61.2603 8.88178e-016 5.99393 0.287273 -4.12312 -3.09098 0.177044 0 6.65865 -0.856112 -8.25474 -6.18667 0.131104 0 8.65624 -1.42685 1.19722 -14.342 35.3728 -4.44089e-016 3.80999 -0.190247 -3.27875 11.5323 17.6496 -1.4963 7.5744 -1.52136 -32.2484 -0.465762 14.2792 -5.47506 -0.905672 0.485692 61.1386 -7.5278 42.1426 -11.3069 -0.201091 0.618544 35.0693 -25.2931 82.4463 -9.61414 -0.254739 3.48553 -8.48042 -35.2832 -12.259 0.176263 -0.07068 1.26622 -27.0717 34.1213 37.4742 -1.04683 -0.546484 1.82182 3.31222 -2.9656 9.24486 -0.993472 -0.621916 0.655506 -4.32715 5.93885 -14.9479 -2.64253 0.566363 2.4162 13.4016 5.92002 -12.0724 -1.39394 -0.635138 0.899356 44.7396 8.15941 -10.1718 -0.622395 -0.856016 0.402182 45.8626 8.24909 -10.4911 -3.20814 0.514427 1.52547 7.10273 0.886127 -2.24135 -1.56545 -0.497974 0.68919 52.741 10.5331 -13.0891 -0.679943 -1.17582 0.444246 15.4526 4.36313 -2.78809 -3.47877 0.200518 0.597719 14.3236 -1.13298 -5.51465 -1.28208 -0.53155 0.44672 21.365 6.41235 -5.10253 -0.710288 -0.970167 0.4032 22.9813 6.80616 -5.57296 -3.42483 -0.278904 -0.240415 -6.90715 -7.98179 -6.36678 -1.05787 -0.635999 0.156459 25.752 8.21721 -6.21984 -0.42815 -0.754232 0.287187 15.2761 5.26323 -3.27308 1.4963 7.5744 -1.52136 4.44193 -3.46948 -14.7999 5.47506 -0.905672 0.485692 -74.5476 16.971 -35.8087 11.3069 -0.201091 0.618544 -6.60605 1.34607 -41.5304 9.61414 -0.254739 3.48553 -172.621 -24.1208 -161.281 -0.176263 -0.07068 1.26622 -10.6359 11.9347 -8.20458 1.04683 -0.546484 1.82182 -3.52462 -0.841787 -6.22161 0.993472 -0.621916 0.655506 -3.38479 -0.816176 -5.97682 2.64253 0.566363 2.4162 6.70672 0.608689 -6.80047 1.39394 -0.635138 0.899356 3.57687 -1.24695 -1.39769 0.622395 -0.856016 0.402182 -1.99084 0.651292 0.805543 3.20814 0.514427 1.52547 2.80352 2.25285 -0.485647 1.56545 -0.497974 0.68919 -4.32197 1.56786 1.78992 0.679943 -1.17582 0.444246 7.80798 -3.20786 -2.96173 3.47877 0.200518 0.597719 4.43567 -0.477495 2.84045 1.28208 -0.53155 0.44672 -4.91109 1.94709 2.30887 0.710288 -0.970167 0.4032 6.89957 -3.11427 -3.00218 3.42483 -0.278904 -0.240415 0.374658 -1.4899 11.794 1.05787 -0.635999 0.156459 5.05419 -2.41038 -2.17289 0.42815 -0.754232 0.287187 -3.97257 1.72705 1.82296 -4.17848 -1.02486 0.046356 -85.3987 -43.2083 -57.9241 1.27155 -17.465 -0.237699 167.464 33.9701 -152.095 0.529163 -17.3815 -1.19582 -8.68287 -35.0686 -6.92934 -0.711591 -4.4863 4.0596 21.7582 -24.4987 4.69536 4.17848 -1.02486 0.046356 80.3444 -45.7043 78.2061 -1.27155 -17.465 -0.237699 172.582 37.6139 -175.447 -0.529163 -17.3815 -1.19582 -0.491029 -50.638 -3.17139 0.711591 -4.4863 4.0596 -0.350405 -13.9269 0.537927 
